<?xml version="1.0" encoding="UTF-8"?>
<!DOCTYPE svg PUBLIC "-//W3C//DTD SVG 1.1//EN" "http://www.w3.org/Graphics/SVG/1.1/DTD/svg11.dtd">
<svg xmlns="http://www.w3.org/2000/svg" version="1.1" width="78px" height="60px" style="shape-rendering:geometricPrecision; text-rendering:geometricPrecision; image-rendering:optimizeQuality; fill-rule:evenodd; clip-rule:evenodd" xmlns:xlink="http://www.w3.org/1999/xlink">
<g><path style="opacity:0.986" fill="#9c3128" d="M 38.5,0.5 C 46.5778,-1.04032 52.7445,1.62634 57,8.5C 58.3536,12.2731 59.8536,15.9398 61.5,19.5C 63.2773,18.099 64.944,16.599 66.5,15C 73.1667,13.3333 75.1667,15.6667 72.5,22C 68.6122,23.8787 65.2789,26.5454 62.5,30C 59.89,31.4814 57.2234,32.6481 54.5,33.5C 55.4219,41.2569 56.7552,48.9236 58.5,56.5C 45.1667,57.1667 31.8333,57.8333 18.5,58.5C 18.5,57.1667 18.5,55.8333 18.5,54.5C 14.9997,54.5046 13.4997,52.8379 14,49.5C 14.6355,48.0337 15.4688,46.7003 16.5,45.5C 14.4509,42.4503 11.7843,40.117 8.5,38.5C 7.35901,36.5787 7.19234,34.5787 8,32.5C 11.5723,30.9489 14.239,31.9489 16,35.5C 15.9869,29.9455 16.9869,24.6122 19,19.5C 21.6417,16.9712 24.8084,15.9712 28.5,16.5C 29.3121,9.533 32.6455,4.19966 38.5,0.5 Z"/></g>
<g><path style="opacity:0.999" fill="#f5e1dc" d="M 41.5,12.5 C 45.1918,13.098 48.8585,14.098 52.5,15.5C 52.8333,16.8333 53.1667,18.1667 53.5,19.5C 47.191,27.7994 41.3577,27.466 36,18.5C 35.8195,16.5116 35.9862,14.5116 36.5,12.5C 37.9733,11.9285 39.64,11.9285 41.5,12.5 Z"/></g>
<g><path style="opacity:0.995" fill="#cb2c1d" d="M 56.5,23.5 C 54.8008,23.6602 53.1341,23.4935 51.5,23C 52.8228,22.1841 53.4894,21.0174 53.5,19.5C 53.1667,18.1667 52.8333,16.8333 52.5,15.5C 52.4226,14.2502 51.756,13.4169 50.5,13C 47.5184,12.502 44.5184,12.3354 41.5,12.5C 39.64,11.9285 37.9733,11.9285 36.5,12.5C 35.0687,13.7804 34.4021,15.4471 34.5,17.5C 32.0523,17.9153 30.7189,16.9153 30.5,14.5C 34.0892,2.1984 41.4225,-0.968263 52.5,5C 57.6233,10.6243 58.9566,16.7909 56.5,23.5 Z"/></g>
<g><path style="opacity:0.89" fill="#9e362f" d="M 41.5,12.5 C 44.5184,12.3354 47.5184,12.502 50.5,13C 51.756,13.4169 52.4226,14.2502 52.5,15.5C 48.8585,14.098 45.1918,13.098 41.5,12.5 Z"/></g>
<g><path style="opacity:0.784" fill="#aa4d46" d="M 47.5,15.5 C 50.6741,15.9522 51.0075,16.9522 48.5,18.5C 47.6143,17.675 47.281,16.675 47.5,15.5 Z"/></g>
<g><path style="opacity:0.988" fill="#a13d36" d="M 39.5,15.5 C 40.9953,15.4148 41.9953,16.0815 42.5,17.5C 40.6043,18.6394 39.6043,17.9728 39.5,15.5 Z"/></g>
<g><path style="opacity:0.982" fill="#f4dfd9" d="M 68.5,15.5 C 69.4734,15.9867 70.4734,16.4867 71.5,17C 70.1667,17.6667 70.1667,18.3333 71.5,19C 69.5166,21.8618 67.1832,22.1952 64.5,20C 65.1905,18.9326 65.6905,17.7659 66,16.5C 67.159,17.566 67.9924,17.2327 68.5,15.5 Z"/></g>
<g><path style="opacity:1" fill="#f0af37" d="M 48.5,37.5 C 49.8333,36.1667 49.8333,34.8333 48.5,33.5C 47.3398,32.735 46.3398,31.735 45.5,30.5C 48.884,30.592 50.5506,28.592 50.5,24.5C 52.7354,24.7947 54.7354,24.4614 56.5,23.5C 58.5824,23.528 60.4157,22.8613 62,21.5C 62.4652,22.9308 63.2986,24.0975 64.5,25C 61.527,28.4888 57.8603,30.9888 53.5,32.5C 53.1667,33.5 52.8333,34.5 52.5,35.5C 53.8402,42.1895 55.1735,48.8562 56.5,55.5C 50.4908,55.6662 44.4908,55.4995 38.5,55C 40.5852,53.9586 42.2519,52.4586 43.5,50.5C 42.8551,49.354 42.0217,48.354 41,47.5C 40.3333,46.5 40.3333,45.5 41,44.5C 42.7668,41.228 45.2668,38.8947 48.5,37.5 Z"/></g>
<g><path style="opacity:0.982" fill="#c32d1e" d="M 43.5,28.5 C 42.5,29.8333 41.5,29.8333 40.5,28.5C 41.3339,27.2521 42.6672,26.5854 44.5,26.5C 45.8333,26.8333 47.1667,27.1667 48.5,27.5C 46.7855,27.5951 45.1188,27.9284 43.5,28.5 Z"/></g>
<g><path style="opacity:0.997" fill="#f5e2dc" d="M 31.5,25.5 C 32.2216,25.9175 32.7216,26.5842 33,27.5C 33.3333,27.1667 33.6667,26.8333 34,26.5C 34.1968,28.8609 35.3635,30.5276 37.5,31.5C 31.5,40.8333 25.5,40.8333 19.5,31.5C 21.5267,30.3067 23.0267,28.64 24,26.5C 25.231,27.1078 26.5643,27.4411 28,27.5C 29.6811,27.3917 30.8478,26.7251 31.5,25.5 Z"/></g>
<g><path style="opacity:0.996" fill="#eaa536" d="M 40.5,28.5 C 41.5,29.8333 42.5,29.8333 43.5,28.5C 44.7035,31.7386 43.7035,34.4052 40.5,36.5C 39.1997,33.6908 39.1997,31.0241 40.5,28.5 Z"/></g>
<g><path style="opacity:0.863" fill="#9c352f" d="M 23.5,31.5 C 24.3864,30.2241 25.3864,30.2241 26.5,31.5C 25.5754,32.5624 24.5754,32.5624 23.5,31.5 Z"/></g>
<g><path style="opacity:0.792" fill="#a5443d" d="M 30.5,30.5 C 33.7973,30.3287 34.1306,30.9954 31.5,32.5C 30.7025,32.0431 30.3691,31.3764 30.5,30.5 Z"/></g>
<g><path style="opacity:0.984" fill="#f4dfda" d="M 9.5,33.5 C 12.179,33.5246 13.5123,34.858 13.5,37.5C 11.8008,37.6602 10.1341,37.4935 8.5,37C 8.61907,35.8552 8.9524,34.6885 9.5,33.5 Z"/></g>
<g><path style="opacity:0.982" fill="#f0d6d0" d="M 48.5,33.5 C 47.5946,34.9643 47.5946,36.2976 48.5,37.5C 47.1779,37.33 46.0113,37.6634 45,38.5C 43.019,35.0532 44.1857,33.3866 48.5,33.5 Z"/></g>
<g><path style="opacity:0.98" fill="#9e362c" d="M 48.5,33.5 C 49.8333,34.8333 49.8333,36.1667 48.5,37.5C 47.5946,36.2976 47.5946,34.9643 48.5,33.5 Z"/></g>
<g><path style="opacity:0.997" fill="#efad37" d="M 32.5,46.5 C 33.404,45.791 33.7373,44.791 33.5,43.5C 34.7375,41.2458 36.5708,39.5792 39,38.5C 40.4341,38.9304 41.6008,39.7638 42.5,41C 40.9242,43.0771 38.9242,44.5771 36.5,45.5C 35.1885,49.1538 35.5219,52.6538 37.5,56C 32.0187,57.4494 26.352,57.9494 20.5,57.5C 20.7678,54.2604 21.4345,51.0937 22.5,48C 19.9329,45.6908 17.2663,43.3575 14.5,41C 16.0552,38.5346 18.0552,38.0346 20.5,39.5C 21.2283,41.1932 22.2283,42.6932 23.5,44C 26.2751,44.591 28.7751,45.7577 31,47.5C 31.7648,47.4301 32.2648,47.0967 32.5,46.5 Z"/></g>
<g><path style="opacity:0.994" fill="#cb2b1c" d="M 33.5,43.5 C 33.7373,44.791 33.404,45.791 32.5,46.5C 30.9519,46.1788 30.2852,45.1788 30.5,43.5C 28.4727,43.6621 26.4727,43.4955 24.5,43C 24.8333,42.6667 25.1667,42.3333 25.5,42C 24.5,41.1667 23.5,40.3333 22.5,39.5C 22.8333,39.1667 23.1667,38.8333 23.5,38.5C 26.8333,41.1667 30.1667,41.1667 33.5,38.5C 33.8333,38.8333 34.1667,39.1667 34.5,39.5C 33.5,40.3333 32.5,41.1667 31.5,42C 32.4158,42.2784 33.0825,42.7784 33.5,43.5 Z"/></g>
</svg>
